<?xml version="1.0" encoding="utf-8"?>
<!-- Generator: Adobe Illustrator 24.0.0, SVG Export Plug-In . SVG Version: 6.00 Build 0)  -->
<svg version="1.1" id="Körber" xmlns="http://www.w3.org/2000/svg" xmlns:xlink="http://www.w3.org/1999/xlink" x="0px" y="0px"
	 viewBox="0 0 1700.2 1000" style="enable-background:new 0 0 1700.2 1000;" xml:space="preserve">
<title>Koerber_Logo_RGB_Black</title>
<path d="M500,376.2c-68.3,0-123.8,55.4-123.7,123.8S431.7,623.8,500,623.8S623.8,568.3,623.8,500S568.4,376.3,500,376.2L500,376.2z
	 M500,583c-45.8,0-83-37.2-83-83s37.2-83,83-83s83,37.2,83,83l0,0C583,545.8,545.8,583,500,583z M1200.1,0
	C1069.2-0.2,943.4,51.2,850,143C756.7,51.2,630.9-0.2,500,0C223.9,0,0,223.9,0,500s223.9,500,500,500
	c130.9,0.2,256.7-51.2,350.1-143c93.4,91.8,219.1,143.2,350.1,143c276.1,0,500-223.9,500-500S1476.3,0,1200.1,0L1200.1,0z
	 M1200.1,961c-125.8,0-239.9-50.7-323.1-132.6c36.2-41.5,65.2-88.8,86-139.8h-42.6c-18.1,40.1-41.7,77.4-70.3,110.8
	c-28.6-33.4-52.3-70.7-70.4-110.8h-42.6c20.8,51,49.8,98.2,86,139.8C739.8,910.3,625.7,961,500,961C245.8,961,39,754.2,39,500
	S245.8,39,500,39c125.8,0,239.9,50.7,323.1,132.6c-36.2,41.5-65.2,88.8-86,139.8h42.6c18.1-40.1,41.8-77.4,70.4-110.8
	c28.6,33.4,52.3,70.7,70.4,110.8h42.6c-20.8-51-49.8-98.2-86-139.8C960.3,89.7,1074.4,39,1200.2,39c254.2,0,461,206.8,461,461
	S1454.3,961,1200.1,961L1200.1,961z M1498.7,523.1c25.7-11.4,43.6-36,44.3-64.4c0.7-30-16.3-55.9-43.2-68.6
	c-16.8-8-34.8-9.5-53.1-9.5h-80.5v238.7h41.9v-85.8h50.8l51.2,85.8h49.2L1498.7,523.1z M1500.8,456c0,11.9-4.9,23.2-14.4,30.6
	c-9.3,7.2-20.9,10-32.4,10.3c-10.8,0.3-41.4,0-45.9,0v-79.4h33c15,0,31.3-0.6,44.3,8.1C1495.7,432.5,1500.8,443.9,1500.8,456z
	 M486.9,326.6c0,12.7-10.3,23-23,23s-23-10.3-23-23s10.3-23,23-23S486.9,313.9,486.9,326.6L486.9,326.6z M559.1,326.6
	c0,12.7-10.3,23-23,23s-23-10.3-23-23s10.3-23,23-23S559.1,313.8,559.1,326.6L559.1,326.6L559.1,326.6z M805.1,523.1
	c25.7-11.4,43.6-36,44.3-64.4c0.7-30-16.3-55.9-43.2-68.6c-16.8-8-34.8-9.5-53.1-9.5h-80.5v238.7h41.9v-85.8h50.8l51.2,85.8h49.2
	L805.1,523.1z M807.1,456c0,11.9-4.9,23.2-14.4,30.6c-9.3,7.2-20.9,10-32.4,10.3c-10.8,0.3-41.4,0-45.9,0v-79.4h33
	c15,0,31.3-0.6,44.3,8.1C802.1,432.5,807.2,443.9,807.1,456L807.1,456z M1086.8,515.2c-4.9-7.9-11.7-14.5-19.7-19.3
	c7.3-4.5,13.5-10.7,17.9-18c5.3-8.8,7.9-19.1,7.9-30.4c0-20.8-7.3-37.4-21.7-49.2c-14.2-11.7-33.7-17.6-57.8-17.6h-98.3v238.8h99.6
	c24.4,0,44.2-6,58.8-17.9c14.8-12,22.4-29.6,22.4-52.1C1095.8,536.1,1092.8,524.6,1086.8,515.2L1086.8,515.2z M1044.3,572
	c-6.8,5.9-16.8,8.9-29.7,8.9h-58.9v-64h56.4c15.2,0,26.2,2.9,32.7,8.5c6.5,5.7,9.6,13.2,9.6,23.3
	C1054.4,558.6,1051.1,566.2,1044.3,572L1044.3,572z M1042.7,469.1c-5.9,5.7-15.4,8.6-28.4,8.6h-58.6v-59h57.6
	c12.9,0,22.7,2.6,29,7.7s9.2,11.8,9.2,21C1051.6,456.3,1048.7,463.4,1042.7,469.1L1042.7,469.1z M1193.3,420.4v59.4h97.9v39.8h-97.9
	v59.7h117.9v40.1h-158.6V380.6h158.6v39.8H1193.3z M250.4,500l119.4,119.3h-53.9L209.5,513.8v105.6h-41.9V380.6h41.9v106.2
	l106.4-106.2h53.9L250.4,500z"/>
</svg>
